<svg width="32" height="32" xmlns="http://www.w3.org/2000/svg">

 <g>
  <title>background</title>
  <rect fill="none" id="canvas_background" height="8.866938" width="7.579387" y="-1" x="-1"/>
 </g>
 <g>
  <title>Layer 1</title>
  <path fill="#ff7f00" id="svg_1" d="m16,23c-3.309,0 -6,-2.691 -6,-6s2.691,-6 6,-6s6,2.691 6,6s-2.691,6 -6,6zm0,-10c-2.206,0 -4,1.794 -4,4s1.794,4 4,4c2.206,0 4,-1.794 4,-4s-1.794,-4 -4,-4zm11,15l-22,0c-1.654,0 -3,-1.346 -3,-3l0,-16c0,-1.654 1.346,-3 3,-3l3,0c0.552,0 1,0.448 1,1s-0.448,1 -1,1l-3,0c-0.551,0 -1,0.449 -1,1l0,16c0,0.552 0.449,1 1,1l22,0c0.552,0 1,-0.448 1,-1l0,-16c0,-0.551 -0.448,-1 -1,-1l-11,0c-0.552,0 -1,-0.448 -1,-1s0.448,-1 1,-1l11,0c1.654,0 3,1.346 3,3l0,16c0,1.654 -1.346,3 -3,3zm-3,-17.5c0,0.828 0.672,1.5 1.5,1.5s1.5,-0.672 1.5,-1.5c0,-0.828 -0.672,-1.5 -1.5,-1.5s-1.5,0.672 -1.5,1.5zm-9,-6.5c0,0.552 -0.448,1 -1,1l-4,0c-0.552,0 -1,-0.448 -1,-1l0,0c0,-0.552 0.448,-1 1,-1l4,0c0.552,0 1,0.448 1,1l0,0z"/>
 </g>
</svg>