<svg width="32" height="33" xmlns="http://www.w3.org/2000/svg">
 <g>
  <title>background</title>
  <rect x="-1" y="-1" width="34" height="35" id="canvas_background" fill="none"/>
 </g>

 <g>
  <title>Layer 1</title>
  <path d="m6.667,28l-5.333,0c-0.8,0 -1.333,-0.533 -1.333,-1.333l0,-5.333c0,-0.8 0.533,-1.333 1.333,-1.333s1.333,0.533 1.333,1.333l0,4l4,0c0.8,0 1.333,0.533 1.333,1.333s-0.533,1.333 -1.333,1.333zm24,0l-5.333,0c-0.8,0 -1.333,-0.533 -1.333,-1.333s0.533,-1.333 1.333,-1.333l4,0l0,-4c0,-0.8 0.533,-1.333 1.333,-1.333s1.333,0.533 1.333,1.333l0,5.333c0,0.8 -0.533,1.333 -1.333,1.333zm0,-16c-0.8,0 -1.333,-0.533 -1.333,-1.333l0,-4l-4,0c-0.8,0 -1.333,-0.533 -1.333,-1.333s0.533,-1.333 1.333,-1.333l5.333,0c0.8,0 1.333,0.533 1.333,1.333l0,5.333c0,0.8 -0.533,1.333 -1.333,1.333zm-29.334,0c-0.8,0 -1.333,-0.533 -1.333,-1.333l0,-5.333c0,-0.8 0.533,-1.333 1.333,-1.333l5.333,0c0.8,0 1.333,0.533 1.333,1.333s-0.533,1.333 -1.333,1.333l-4,0l0,4c0,0.8 -0.533,1.333 -1.333,1.333z" id="svg_1" fill="#000000"/>
 </g>
</svg>