<svg width="32" height="33" xmlns="http://www.w3.org/2000/svg">

 <g>
  <title>background</title>
  <rect fill="none" id="canvas_background" height="8.866938" width="7.579387" y="-1" x="-1"/>
 </g>
 <g>
  <title>Layer 1</title>
  <path fill="#ff7f00" id="svg_1" d="m24.965,24.38l-18.132,0c-1.366,0 -2.478,-1.113 -2.478,-2.478l0,-11.806c0,-1.364 1.111,-2.478 2.478,-2.478l18.132,0c1.366,0 2.478,1.113 2.478,2.478l0,11.806c0,1.364 -1.11,2.478 -2.478,2.478zm-18.132,-14.283l0,11.806l18.134,0l-0.002,-11.806l-18.132,0zm-4.355,18.831l5.952,0c0.684,0 1.238,-0.554 1.238,-1.239c0,-0.684 -0.554,-1.238 -1.238,-1.238l-5.952,0l0,-5.802c0,-0.684 -0.554,-1.239 -1.238,-1.239s-1.239,0.556 -1.239,1.239l0,5.802c0,1.365 1.111,2.478 2.478,2.478l-0.001,-0.001zm28.283,-9.516c-0.684,0 -1.238,0.554 -1.238,1.238l0,5.801l-5.951,0c-0.686,0 -1.239,0.554 -1.239,1.238c0,0.686 0.554,1.239 1.239,1.239l5.951,0c1.366,0 2.478,-1.111 2.478,-2.478l0,-5.801c0,-0.683 -0.554,-1.238 -1.239,-1.238l-0.001,0.001zm-30.761,-13.862l0,5.802c0,0.683 0.554,1.238 1.238,1.238s1.238,-0.555 1.238,-1.238l0,-5.802l5.952,0c0.684,0 1.238,-0.554 1.238,-1.238s-0.554,-1.238 -1.238,-1.238l-5.951,0c-1.366,-0.001 -2.478,1.111 -2.478,2.476l0.001,0zm32,5.8l0,-5.801c0,-1.365 -1.11,-2.478 -2.478,-2.478l-5.951,0c-0.686,0 -1.239,0.554 -1.239,1.238s0.554,1.238 1.239,1.238l5.951,0l0,5.801c0,0.683 0.554,1.237 1.238,1.237c0.686,0.002 1.239,-0.553 1.239,-1.236l0.001,0.001z"/>
 </g>
</svg>