<?xml version="1.0" standalone="no"?><!DOCTYPE svg PUBLIC "-//W3C//DTD SVG 1.1//EN" "http://www.w3.org/Graphics/SVG/1.1/DTD/svg11.dtd"><svg t="1539057161090" class="icon" style="" viewBox="0 0 1024 1024" version="1.1" xmlns="http://www.w3.org/2000/svg" p-id="5773" xmlns:xlink="http://www.w3.org/1999/xlink" width="32" height="32">
<path d="M99.357 291.197h827.659c19.33 0 35-15.67 35-35s-15.67-35-35-35H99.357c-19.33 0-35 15.67-35 35s15.67 35 35 35zM927.017 477.549H99.357c-19.33 0-35 15.67-35 35s15.67 35 35 35h827.659c19.33 0 35-15.67 35-35 0.001-19.33-15.669-35-34.999-35zM961.995 766.768c-0.006-0.256-0.008-0.513-0.019-0.769-0.019-0.42-0.053-0.837-0.086-1.253-0.014-0.171-0.022-0.342-0.039-0.512a34.785 34.785 0 0 0-4.251-13.627l-0.073-0.127c-0.258-0.458-0.525-0.91-0.802-1.355-0.069-0.11-0.141-0.219-0.211-0.328a35.929 35.929 0 0 0-0.735-1.106c-0.106-0.153-0.215-0.303-0.323-0.454a35.317 35.317 0 0 0-0.694-0.935c-0.135-0.176-0.273-0.35-0.411-0.524a41.018 41.018 0 0 0-1.157-1.374 35.184 35.184 0 0 0-0.693-0.755c-0.171-0.181-0.341-0.363-0.516-0.541-0.246-0.25-0.498-0.494-0.751-0.737-0.124-0.119-0.242-0.243-0.368-0.361l-148.55-138.288c-14.15-13.174-36.296-12.38-49.467 1.77-13.171 14.147-12.378 36.294 1.77 49.465l83.434 77.671H99.357c-19.33 0-35 15.67-35 35s15.67 35 35 35h736.102l-80.339 71.936c-14.4 12.895-15.621 35.021-2.728 49.423 6.913 7.721 16.479 11.653 26.087 11.652a34.873 34.873 0 0 0 23.336-8.925l148.549-133.011 0.087-0.082c0.305-0.275 0.6-0.56 0.895-0.845 0.129-0.125 0.264-0.246 0.391-0.373 0.411-0.411 0.813-0.831 1.204-1.261 0.097-0.107 0.187-0.219 0.283-0.326 0.296-0.334 0.589-0.67 0.872-1.015 0.113-0.138 0.22-0.281 0.331-0.421 0.259-0.326 0.516-0.653 0.764-0.989 0.098-0.133 0.191-0.27 0.287-0.404 0.253-0.353 0.502-0.709 0.742-1.072 0.077-0.117 0.151-0.236 0.227-0.354 0.252-0.39 0.497-0.784 0.733-1.185 0.056-0.095 0.11-0.192 0.165-0.288 0.249-0.431 0.489-0.867 0.719-1.309l0.11-0.215c0.242-0.471 0.473-0.949 0.693-1.432l0.065-0.144c0.228-0.506 0.444-1.018 0.649-1.537l0.038-0.096c0.207-0.53 0.401-1.066 0.583-1.608l0.026-0.078c0.179-0.539 0.345-1.084 0.499-1.635l0.028-0.099c0.146-0.53 0.279-1.065 0.4-1.604l0.041-0.176c0.11-0.5 0.207-1.003 0.294-1.511 0.018-0.102 0.038-0.203 0.055-0.305 0.074-0.453 0.137-0.909 0.193-1.367 0.02-0.157 0.042-0.314 0.06-0.472 0.044-0.398 0.076-0.798 0.106-1.2 0.017-0.216 0.037-0.432 0.049-0.648 0.02-0.352 0.029-0.707 0.038-1.062 0.006-0.208 0.02-0.414 0.022-0.623 0-0.053-0.003-0.105-0.003-0.158 0-0.06 0.005-0.12 0.005-0.181 0.002-0.289-0.013-0.574-0.02-0.86z" p-id="5774" fill="#444444"/>
</svg>