<svg width="28" height="32" xmlns="http://www.w3.org/2000/svg" class="icon">

 <g>
  <title>background</title>
  <rect fill="none" id="canvas_background" height="34" width="30" y="-1" x="-1"/>
 </g>
 <g>
  <title>Layer 1</title>
  <path stroke="null" id="svg_1" fill="#000000" d="m1.835141,9.272815l24.329718,0c0.568221,0 1.028854,-0.50591 1.028854,-1.129983s-0.460633,-1.129983 -1.028854,-1.129983l-24.329718,0c-0.568221,0 -1.028854,0.50591 -1.028854,1.129983s0.460633,1.129983 1.028854,1.129983zm24.329747,6.016419l-24.329747,0c-0.568221,0 -1.028854,0.50591 -1.028854,1.129983s0.460633,1.129983 1.028854,1.129983l24.329718,0c0.568221,0 1.028854,-0.50591 1.028854,-1.129983c0.000029,-0.624074 -0.460603,-1.129983 -1.028824,-1.129983zm1.028207,9.337505c-0.000176,-0.008265 -0.000235,-0.016562 -0.000559,-0.024827c-0.000559,-0.01356 -0.001558,-0.027023 -0.002528,-0.040453c-0.000412,-0.005521 -0.000647,-0.011042 -0.001146,-0.01653a1.022534,1.123042 0 0 0 -0.124962,-0.439951l-0.002146,-0.0041c-0.007584,-0.014787 -0.015433,-0.02938 -0.023575,-0.043746c-0.002028,-0.003551 -0.004145,-0.00707 -0.006203,-0.01059a1.056163,1.159976 0 0 0 -0.021606,-0.035707c-0.003116,-0.00494 -0.00632,-0.009782 -0.009495,-0.014657a1.038172,1.140218 0 0 0 -0.020401,-0.030187c-0.003968,-0.005682 -0.008025,-0.0113 -0.012082,-0.016917a1.205758,1.324276 0 0 0 -0.034011,-0.04436a1.034263,1.135924 0 0 0 -0.020371,-0.024375c-0.005027,-0.005844 -0.010024,-0.01172 -0.015168,-0.017466c-0.007231,-0.008071 -0.014639,-0.015949 -0.022076,-0.023794c-0.003645,-0.003842 -0.007114,-0.007845 -0.010818,-0.011655l-4.36675,-4.464661c-0.415951,-0.425326 -1.066951,-0.399691 -1.454123,0.057145c-0.387172,0.456739 -0.363861,1.17176 0.052031,1.596989l2.452611,2.507627l-21.714577,0c-0.568221,0 -1.028854,0.50591 -1.028854,1.129983s0.460633,1.129983 1.028854,1.129983l21.638324,0l-2.361631,2.322471c-0.4233,0.416318 -0.459192,1.130661 -0.080192,1.595633c0.203213,0.249274 0.484414,0.37622 0.766849,0.376188a1.025121,1.125883 0 0 0 0.685981,-0.288146l4.36672,-4.294292l0.002557,-0.002647c0.008966,-0.008878 0.017637,-0.01808 0.026309,-0.027281c0.003792,-0.004036 0.00776,-0.007942 0.011494,-0.012042c0.012082,-0.013269 0.023899,-0.026829 0.035393,-0.040712c0.002851,-0.003455 0.005497,-0.00707 0.008319,-0.010525c0.008701,-0.010783 0.017314,-0.021631 0.025633,-0.03277c0.003322,-0.004455 0.006467,-0.009072 0.00973,-0.013592c0.007614,-0.010525 0.015168,-0.021082 0.022458,-0.03193c0.002881,-0.004294 0.005615,-0.008717 0.008437,-0.013043c0.007437,-0.011397 0.014757,-0.02289 0.021812,-0.03461c0.002263,-0.003777 0.004439,-0.007619 0.006673,-0.011429c0.007408,-0.012591 0.01461,-0.025312 0.021547,-0.038258c0.001646,-0.003067 0.003234,-0.006199 0.00485,-0.009298c0.00732,-0.013915 0.014375,-0.027991 0.021136,-0.042261l0.003234,-0.006941c0.007114,-0.015206 0.013904,-0.030639 0.020371,-0.046232l0.001911,-0.004649c0.006702,-0.016336 0.013052,-0.032866 0.019078,-0.049622l0.001117,-0.003099c0.006085,-0.017111 0.011788,-0.034416 0.017138,-0.051915l0.000764,-0.002518c0.005262,-0.017402 0.010142,-0.034997 0.014669,-0.052786l0.000823,-0.003196c0.004292,-0.017111 0.008201,-0.034384 0.011758,-0.051786l0.001205,-0.005682c0.003234,-0.016143 0.006085,-0.032382 0.008642,-0.048783c0.000529,-0.003293 0.001117,-0.006554 0.001617,-0.009847c0.002175,-0.014625 0.004027,-0.029347 0.005673,-0.044134c0.000588,-0.005069 0.001235,-0.010138 0.001764,-0.015239c0.001293,-0.01285 0.002234,-0.025764 0.003116,-0.038742c0.0005,-0.006974 0.001088,-0.013947 0.00144,-0.020921c0.000588,-0.011364 0.000852,-0.022826 0.001117,-0.034287c0.000176,-0.006715 0.000588,-0.013366 0.000647,-0.020114c0,-0.001711 -0.000088,-0.00339 -0.000088,-0.005101c0,-0.001937 0.000147,-0.003874 0.000147,-0.005844c0.000059,-0.00933 -0.000382,-0.018532 -0.000588,-0.027765z"/>
 </g>
</svg>