<svg width="1024" height="1024" xmlns="http://www.w3.org/2000/svg" class="icon">

 <g>
  <title>background</title>
  <rect fill="none" id="canvas_background" height="34" width="34" y="-1" x="-1"/>
 </g>
 <g>
  <title>Layer 1</title>
  <path id="svg_1" fill="#ff7f00" d="m99.357,291.197l827.659,0c19.33,0 35,-15.67 35,-35s-15.67,-35 -35,-35l-827.659,0c-19.33,0 -35,15.67 -35,35s15.67,35 35,35zm827.66,186.352l-827.66,0c-19.33,0 -35,15.67 -35,35s15.67,35 35,35l827.659,0c19.33,0 35,-15.67 35,-35c0.001,-19.33 -15.669,-35 -34.999,-35zm34.978,289.219c-0.006,-0.256 -0.008,-0.513 -0.019,-0.769c-0.019,-0.42 -0.053,-0.837 -0.086,-1.253c-0.014,-0.171 -0.022,-0.342 -0.039,-0.512a34.785,34.785 0 0 0 -4.251,-13.627l-0.073,-0.127c-0.258,-0.458 -0.525,-0.91 -0.802,-1.355c-0.069,-0.11 -0.141,-0.219 -0.211,-0.328a35.929,35.929 0 0 0 -0.735,-1.106c-0.106,-0.153 -0.215,-0.303 -0.323,-0.454a35.317,35.317 0 0 0 -0.694,-0.935c-0.135,-0.176 -0.273,-0.35 -0.411,-0.524a41.018,41.018 0 0 0 -1.157,-1.374a35.184,35.184 0 0 0 -0.693,-0.755c-0.171,-0.181 -0.341,-0.363 -0.516,-0.541c-0.246,-0.25 -0.498,-0.494 -0.751,-0.737c-0.124,-0.119 -0.242,-0.243 -0.368,-0.361l-148.55,-138.288c-14.15,-13.174 -36.296,-12.38 -49.467,1.77c-13.171,14.147 -12.378,36.294 1.77,49.465l83.434,77.671l-738.696,0c-19.33,0 -35,15.67 -35,35s15.67,35 35,35l736.102,0l-80.339,71.936c-14.4,12.895 -15.621,35.021 -2.728,49.423c6.913,7.721 16.479,11.653 26.087,11.652a34.873,34.873 0 0 0 23.336,-8.925l148.549,-133.011l0.087,-0.082c0.305,-0.275 0.6,-0.56 0.895,-0.845c0.129,-0.125 0.264,-0.246 0.391,-0.373c0.411,-0.411 0.813,-0.831 1.204,-1.261c0.097,-0.107 0.187,-0.219 0.283,-0.326c0.296,-0.334 0.589,-0.67 0.872,-1.015c0.113,-0.138 0.22,-0.281 0.331,-0.421c0.259,-0.326 0.516,-0.653 0.764,-0.989c0.098,-0.133 0.191,-0.27 0.287,-0.404c0.253,-0.353 0.502,-0.709 0.742,-1.072c0.077,-0.117 0.151,-0.236 0.227,-0.354c0.252,-0.39 0.497,-0.784 0.733,-1.185c0.056,-0.095 0.11,-0.192 0.165,-0.288c0.249,-0.431 0.489,-0.867 0.719,-1.309l0.11,-0.215c0.242,-0.471 0.473,-0.949 0.693,-1.432l0.065,-0.144c0.228,-0.506 0.444,-1.018 0.649,-1.537l0.038,-0.096c0.207,-0.53 0.401,-1.066 0.583,-1.608l0.026,-0.078c0.179,-0.539 0.345,-1.084 0.499,-1.635l0.028,-0.099c0.146,-0.53 0.279,-1.065 0.4,-1.604l0.041,-0.176c0.11,-0.5 0.207,-1.003 0.294,-1.511c0.018,-0.102 0.038,-0.203 0.055,-0.305c0.074,-0.453 0.137,-0.909 0.193,-1.367c0.02,-0.157 0.042,-0.314 0.06,-0.472c0.044,-0.398 0.076,-0.798 0.106,-1.2c0.017,-0.216 0.037,-0.432 0.049,-0.648c0.02,-0.352 0.029,-0.707 0.038,-1.062c0.006,-0.208 0.02,-0.414 0.022,-0.623c0,-0.053 -0.003,-0.105 -0.003,-0.158c0,-0.06 0.005,-0.12 0.005,-0.181c0.002,-0.289 -0.013,-0.574 -0.02,-0.86z"/>
 </g>
</svg>