<svg width="21" height="32" xmlns="http://www.w3.org/2000/svg">

 <g>
  <title>background</title>
  <rect fill="none" id="canvas_background" height="8.866938" width="7.579387" y="-1" x="-1"/>
 </g>
 <g>
  <title>Layer 1</title>
  <path fill="#ff7f00" id="svg_1" d="m13.728,6.272l0,19.456q0,0.448 -0.352,0.8t-0.8,0.32t-0.8,-0.32l-5.952,-5.952l-4.672,0q-0.48,0 -0.8,-0.352t-0.352,-0.8l0,-6.848q0,-0.48 0.352,-0.8t0.8,-0.352l4.672,0l5.952,-5.952q0.32,-0.32 0.8,-0.32t0.8,0.32t0.352,0.8zm6.848,9.728q0,1.344 -0.768,2.528t-2.016,1.664q-0.16,0.096 -0.448,0.096q-0.448,0 -0.8,-0.32t-0.32,-0.832q0,-0.384 0.192,-0.64t0.544,-0.448t0.608,-0.384t0.512,-0.64t0.192,-1.024t-0.192,-1.024t-0.512,-0.64t-0.608,-0.384t-0.544,-0.448t-0.192,-0.64q0,-0.48 0.32,-0.832t0.8,-0.32q0.288,0 0.448,0.096q1.248,0.48 2.016,1.664t0.768,2.528z"/>
 </g>
</svg>